<svg xmlns="http://www.w3.org/2000/svg" fill="#1e1e1e" viewBox="0 0 440 320"><path d="m63.603 10.701-6.6 6.6q-3.3-4-8.55-6.25t-11.25-2.25q-11.7 0-19.8 8.1-8 8.2-8 20.5t8 20.5q8.1 8.1 19.8 8.1 10.7 0 17.8-6t8.2-16.5h-26v-8.6h34.7q.5 2.8.5 5.4 0 15-8.9 23.9-10 10.6-26.3 10.6-15.6 0-26.4-10.8t-10.8-26.6 10.8-26.6 26.4-10.8q7.9 0 14.9 2.8t11.5 7.9m129.1 71.4 8.7-3.6q1.5 4.3 5.2 6.9t8.6 2.6q7.5 0 11.7-4.5t4.2-12.4v-4.7h-.4q-2.6 3.9-7.05 6.15t-9.65 2.25q-9.6 0-16.5-7.5-6.8-7.7-6.8-18.6t6.8-18.5q6.9-7.6 16.5-7.6 5.2 0 9.65 2.25t7.05 6.15h.4v-6.8h8.8v46.9q0 11.8-6.7 18.5-6.8 6.8-18 6.8-4.1 0-7.7-1.05t-6.55-2.95-5.05-4.5-3.2-5.8m123.5-32.7-.1 1h-38.5q.2 7.2 4.8 11.6t11 4.4q8.8 0 13.8-8.8l8.2 4q-3.3 6.2-9.15 9.7t-13.25 3.5q-10.8 0-17.8-7.4t-7-18.7q0-11.2 6.8-18.65t17.4-7.45q10.9 0 17.35 7.05t6.45 19.75m-237.5-.7q0-11.3 7.1-18.7 7.2-7.4 18.1-7.4t18 7.4q7.2 7.4 7.2 18.7 0 11.4-7.2 18.7-7.1 7.4-18 7.4t-18.1-7.4q-7.1-7.4-7.1-18.7m56 0q0-11.3 7.1-18.7 7.2-7.4 18.1-7.4t18 7.4q7.2 7.4 7.2 18.7 0 11.4-7.2 18.7-7.1 7.4-18 7.4t-18.1-7.4q-7.1-7.4-7.1-18.7m116.4-47.1h9.2v71.6h-9.2zm-163.2 47.1q0 7.9 4.6 12.8t11.4 4.9 11.4-4.9 4.6-12.8q0-7.8-4.6-12.7-4.7-5-11.4-5t-11.4 5q-4.6 4.9-4.6 12.7m56 0q0 7.9 4.6 12.8t11.4 4.9 11.4-4.9 4.6-12.8q0-7.8-4.6-12.7-4.7-5-11.4-5t-11.4 5q-4.6 4.9-4.6 12.7m71.6 17.7q6.8 0 11.1-4.9 4.5-4.9 4.5-12.8 0-7.7-4.5-12.7-4.4-5-11.1-5-6.6 0-11.1 5t-4.5 12.7q0 7.8 4.5 12.7 4.5 5 11.1 5m62.8-23.6h28.1q-.4-5.1-4.15-8.45t-10.05-3.35q-5.2 0-8.95 3.2t-4.95 8.6M307.7 176.802h-.4l.4 6.8v21.6h-9.2v-70.6h8.8v6.8h.4q2.4-3.8 6.85-6.1t9.85-2.3q9.7 0 16.4 7.6 6.9 7.7 6.9 18.5 0 10.9-6.9 18.5-6.7 7.6-16.4 7.6-5.4 0-9.85-2.3t-6.85-6.1m-193.5-17-.1 1H75.6q.2 7.2 4.8 11.6t11 4.4q8.8 0 13.8-8.8l8.2 4q-3.3 6.2-9.15 9.7t-13.25 3.5q-10.8 0-17.8-7.4t-7-18.7q0-11.2 6.8-18.65t17.4-7.45q10.9 0 17.35 7.05t6.45 19.75m100.9 0-.1 1h-38.5q.2 7.2 4.8 11.6t11 4.4q8.8 0 13.8-8.8l8.2 4q-3.3 6.2-9.15 9.7t-13.25 3.5q-10.8 0-17.8-7.4t-7-18.7q0-11.2 6.8-18.65t17.4-7.45q10.9 0 17.35 7.05t6.45 19.75m186.2 0-.1 1h-38.5q.2 7.2 4.8 11.6t11 4.4q8.8 0 13.8-8.8l8.2 4q-3.3 6.2-9.15 9.7t-13.25 3.5q-10.8 0-17.8-7.4t-7-18.7q0-11.2 6.8-18.65t17.4-7.45q10.9 0 17.35 7.05t6.45 19.75m-376.4 23.8H3v-71.6h21.9q16.4 0 26.35 9.9t9.95 25.9q0 16.1-9.95 25.95t-26.35 9.85m140.5-49-20 49h-9.2l-19.8-49h10l14.4 38h.2l14.6-38zm-140.5-13.8H12.2v54h12.7q12.5 0 19.7-7.15t7.2-19.85q0-12.6-7.2-19.8t-19.7-7.2m394 35.8v27h-9.2v-49h8.8v8h.4q1.4-3.9 5.75-6.65t8.55-2.75q4 0 6.8 1.2l-2.8 8.9q-1.7-.7-5.4-.7-5.2 0-9.05 4.2t-3.85 9.8m-178.3 2.5q0-11.3 7.1-18.7 7.2-7.4 18.1-7.4t18 7.4q7.2 7.4 7.2 18.7 0 11.4-7.2 18.7-7.1 7.4-18 7.4t-18.1-7.4q-7.1-7.4-7.1-18.7m-17.1-47.1h9.2v71.6h-9.2zm26.3 47.1q0 7.9 4.6 12.8t11.4 4.9 11.4-4.9 4.6-12.8q0-7.8-4.6-12.7-4.7-5-11.4-5t-11.4 5q-4.6 4.9-4.6 12.7m73.1 17.7q6.6 0 11.1-5 4.5-4.9 4.5-12.7 0-7.7-4.5-12.7t-11.1-5q-6.7 0-11.2 5-4.4 5-4.4 12.7 0 7.8 4.4 12.8 4.5 4.9 11.2 4.9m-246.6-23.6h28.1q-.4-5.1-4.15-8.45t-10.05-3.35q-5.2 0-8.95 3.2t-4.95 8.6m100.9 0h28.1q-.4-5.1-4.15-8.45t-10.05-3.35q-5.2 0-8.95 3.2t-4.95 8.6m186.2 0h28.1q-.4-5.1-4.15-8.45t-10.05-3.35q-5.2 0-8.95 3.2t-4.95 8.6M63.603 234.701l-6.6 6.6q-3.3-4-8.55-6.25t-11.25-2.25q-11.7 0-19.8 8.1-8 8.2-8 20.5t8 20.5q8.1 8.1 19.8 8.1 10.7 0 17.8-6t8.2-16.5h-26v-8.6h34.7q.5 2.8.5 5.4 0 15-8.9 23.9-10 10.6-26.3 10.6-15.6 0-26.4-10.8t-10.8-26.6 10.8-26.6 26.4-10.8q7.9 0 14.9 2.8t11.5 7.9m148.2 13.5v49h-8.8v-6.8h-.4q-2.1 3.6-6.45 6t-9.05 2.4q-9 0-13.85-5.15t-4.85-14.65v-30.8h9.2v30.2q.3 12 12.1 12 5.5 0 9.2-4.45t3.7-10.65v-27.1zm64.7 36.6 8.2-3.5q1.8 4.4 5.25 6.85t7.55 2.45q4.4 0 7.35-1.9t2.95-4.5q0-4.7-7.2-6.9l-8.4-2.1q-14.3-3.6-14.3-13.8 0-6.7 5.45-10.75t13.95-4.05q6.5 0 11.75 3.1t7.35 8.3l-8.2 3.4q-1.4-3.1-4.55-4.85t-7.05-1.75q-3.6 0-6.45 1.8t-2.85 4.4q0 4.2 7.9 6l7.4 1.9q14.6 3.6 14.6 14.7 0 6.4-5.6 10.8t-14.1 4.4q-7.4 0-13-3.85t-8-10.15m-44.7 5.6h-.4l.4 6.8v21.6h-9.2v-70.6h8.8v6.8h.4q2.4-3.8 6.85-6.1t9.85-2.3q9.7 0 16.4 7.6 6.9 7.7 6.9 18.5 0 10.9-6.9 18.5-6.7 7.6-16.4 7.6-5.4 0-9.85-2.3t-6.85-6.1m-142.6-20.2v27h-9.2v-49h8.8v8h.4q1.4-3.9 5.75-6.65t8.55-2.75q4 0 6.8 1.2l-2.8 8.9q-1.7-.7-5.4-.7-5.2 0-9.05 4.2t-3.85 9.8m21.3 2.5q0-11.3 7.1-18.7 7.2-7.4 18.1-7.4t18 7.4q7.2 7.4 7.2 18.7 0 11.4-7.2 18.7-7.1 7.4-18 7.4t-18.1-7.4q-7.1-7.4-7.1-18.7m9.2 0q0 7.9 4.6 12.8t11.4 4.9 11.4-4.9 4.6-12.8q0-7.8-4.6-12.7-4.7-5-11.4-5t-11.4 5q-4.6 4.9-4.6 12.7m127.3 17.7q6.6 0 11.1-5 4.5-4.9 4.5-12.7 0-7.7-4.5-12.7t-11.1-5q-6.7 0-11.2 5-4.4 5-4.4 12.7 0 7.8 4.4 12.8 4.5 4.9 11.2 4.9"/></svg>