<svg xmlns="http://www.w3.org/2000/svg" xmlns:xlink="http://www.w3.org/1999/xlink" width="360" height="722" viewBox="0 0 95.25 191.029"><defs><linearGradient id="e"><stop style="stop-color:#404040;stop-opacity:1" offset="0"/><stop offset=".022" style="stop-color:#464646;stop-opacity:1"/><stop style="stop-color:#525252;stop-opacity:.01568628" offset=".999"/><stop style="stop-color:#444;stop-opacity:0" offset="1"/></linearGradient><linearGradient id="d"><stop style="stop-color:#4f4f4f;stop-opacity:.13084112" offset="0"/><stop offset=".07" style="stop-color:#4f4f4f;stop-opacity:1"/><stop style="stop-color:#4f4f4f;stop-opacity:.95327103" offset=".937"/><stop style="stop-color:#4f4f4f;stop-opacity:0" offset="1"/></linearGradient><linearGradient id="c"><stop offset="0" style="stop-color:#cbcbcb;stop-opacity:.27450982"/><stop style="stop-color:#cbcbcb;stop-opacity:1" offset=".04"/><stop offset=".96" style="stop-color:#cbcbcb;stop-opacity:1"/><stop offset="1" style="stop-color:#cbcbcb;stop-opacity:.27570093"/></linearGradient><linearGradient id="b"><stop style="stop-color:#cbcbcb;stop-opacity:.27450982" offset="0"/><stop offset=".05" style="stop-color:#cbcbcb;stop-opacity:1"/><stop style="stop-color:#cbcbcb;stop-opacity:1" offset=".95"/><stop style="stop-color:#cbcbcb;stop-opacity:.27570093" offset="1"/></linearGradient><linearGradient id="a"><stop offset="0" style="stop-color:#404040;stop-opacity:1"/><stop style="stop-color:#838383;stop-opacity:1" offset=".6"/><stop offset="1" style="stop-color:#a7a7a7;stop-opacity:1"/></linearGradient><linearGradient xlink:href="#a" id="p" gradientUnits="userSpaceOnUse" x1="340.652" y1="361.123" x2="349.574" y2="361.123"/><linearGradient gradientTransform="matrix(-.26458 0 0 .26458 95.476 0)" xlink:href="#a" id="q" gradientUnits="userSpaceOnUse" x1="340.652" y1="361.123" x2="349.574" y2="361.123"/><linearGradient xlink:href="#b" id="i" x1="-13.206" y1="26.259" x2="-13.206" y2="32.871" gradientUnits="userSpaceOnUse"/><linearGradient xlink:href="#b" id="k" x1="-13.206" y1="26.259" x2="-13.206" y2="39.269" gradientUnits="userSpaceOnUse" gradientTransform="translate(13.878 13.831)"/><linearGradient xlink:href="#b" id="m" gradientUnits="userSpaceOnUse" gradientTransform="translate(13.878 13.831)" x1="-13.206" y1="26.259" x2="-13.206" y2="39.269"/><linearGradient xlink:href="#c" id="g" gradientUnits="userSpaceOnUse" gradientTransform="translate(13.878 13.831)" x1="-13.206" y1="26.259" x2="-13.206" y2="47.301"/><linearGradient xlink:href="#d" id="t" x1="8.315" y1="8.48" x2="86.935" y2="8.48" gradientUnits="userSpaceOnUse" gradientTransform="translate(.067 -2.606)"/><linearGradient xlink:href="#d" id="u" x1="8.315" y1="8.48" x2="86.935" y2="8.48" gradientUnits="userSpaceOnUse" gradientTransform="matrix(1 0 0 -1 .067 193.567)"/><linearGradient xlink:href="#e" id="v" gradientUnits="userSpaceOnUse" x1="304.221" y1="22.201" x2="303.21" y2="920.095"/><clipPath clipPathUnits="userSpaceOnUse" id="n"><path style="color:#000;display:inline;overflow:visible;visibility:visible;opacity:1;vector-effect:none;fill:#ebebeb;fill-opacity:1;fill-rule:nonzero;stroke:none;stroke-width:1.27649546;stroke-linecap:round;stroke-linejoin:miter;stroke-miterlimit:4;stroke-dasharray:none;stroke-dashoffset:0;stroke-opacity:1;marker:none;enable-background:accumulate" d="M56.734 2.014c-29.678 0-53.572 23.893-53.572 53.572v610.443c0 29.679 23.894 53.573 53.572 53.573h246.532c29.678 0 53.572-23.894 53.572-53.573V55.586c0-29.679-23.894-53.572-53.572-53.572zm-1.423 3.978h249.378c26.583 0 47.983 21.398 47.983 47.98V668.21c0 26.582-21.4 47.982-47.983 47.982H55.311c-26.583 0-47.983-21.4-47.983-47.982V53.973c0-26.583 21.4-47.98 47.983-47.98z"/></clipPath><clipPath clipPathUnits="userSpaceOnUse" id="h"><rect style="color:#000;display:inline;overflow:visible;visibility:visible;opacity:1;vector-effect:none;fill:#000;fill-opacity:1;fill-rule:nonzero;stroke:none;stroke-width:.02645833;stroke-linecap:round;stroke-linejoin:miter;stroke-miterlimit:4;stroke-dasharray:none;stroke-dashoffset:0;stroke-opacity:1;marker:none;enable-background:accumulate" width="4.377" height="7.417" x="-13.878" y="25.857" ry=".451"/></clipPath><clipPath clipPathUnits="userSpaceOnUse" id="j"><path d="M.451 39.688a.45.45 0 0 0-.451.45v12.913c0 .25.201.451.451.451h3.474a.45.45 0 0 0 .451-.45V40.138a.45.45 0 0 0-.45-.451z" style="color:#000;display:inline;overflow:visible;visibility:visible;opacity:1;vector-effect:none;fill:#000;fill-opacity:1;fill-rule:nonzero;stroke:none;stroke-width:.02645833;stroke-linecap:round;stroke-linejoin:miter;stroke-miterlimit:4;stroke-dasharray:none;stroke-dashoffset:0;stroke-opacity:1;marker:none;enable-background:accumulate"/></clipPath><clipPath clipPathUnits="userSpaceOnUse" id="l"><path d="M.451 39.688a.45.45 0 0 0-.451.45v12.913c0 .25.201.451.451.451h3.474a.45.45 0 0 0 .451-.45V40.138a.45.45 0 0 0-.45-.451z" style="color:#000;display:inline;overflow:visible;visibility:visible;opacity:1;vector-effect:none;fill:#000;fill-opacity:1;fill-rule:nonzero;stroke:none;stroke-width:.02645833;stroke-linecap:round;stroke-linejoin:miter;stroke-miterlimit:4;stroke-dasharray:none;stroke-dashoffset:0;stroke-opacity:1;marker:none;enable-background:accumulate"/></clipPath><clipPath clipPathUnits="userSpaceOnUse" id="f"><path d="M.451 39.688a.45.45 0 0 0-.451.45v20.945c0 .25.201.451.451.451h3.474a.45.45 0 0 0 .451-.45V40.138a.45.45 0 0 0-.45-.451z" style="color:#000;display:inline;overflow:visible;visibility:visible;opacity:1;vector-effect:none;fill:#000;fill-opacity:1;fill-rule:nonzero;stroke:none;stroke-width:.02645833;stroke-linecap:round;stroke-linejoin:miter;stroke-miterlimit:4;stroke-dasharray:none;stroke-dashoffset:0;stroke-opacity:1;marker:none;enable-background:accumulate"/></clipPath><filter style="color-interpolation-filters:sRGB" id="o" x="-.002" width="1.003" y="-.001" height="1.002"><feGaussianBlur stdDeviation=".266"/></filter><filter style="color-interpolation-filters:sRGB" id="r" x="-.192" width="1.385" y="-.082" height="1.165"><feGaussianBlur stdDeviation=".031"/></filter><filter style="color-interpolation-filters:sRGB" id="s" x="-.109" width="1.218" y="-.082" height="1.165"><feGaussianBlur stdDeviation=".031"/></filter></defs><path style="color:#000;display:inline;overflow:visible;visibility:visible;opacity:1;vector-effect:none;fill:#000;fill-opacity:1;fill-rule:nonzero;stroke:none;stroke-width:.02645833;stroke-linecap:round;stroke-linejoin:miter;stroke-miterlimit:4;stroke-dasharray:none;stroke-dashoffset:0;stroke-opacity:1;marker:none;enable-background:accumulate" d="M94.799 44.206c.25 0 .451.201.451.451v20.945a.45.45 0 0 1-.451.45h-3.474a.45.45 0 0 1-.451-.45V44.657c0-.25.2-.45.45-.45z"/><path transform="matrix(-1 0 0 1 95.25 4.518)" clip-path="url(#f)" d="M.547 40.09a.401.401 0 0 0-.402.402V60.73c0 .223.18.402.402.402h.125V40.09z" style="color:#000;display:inline;overflow:visible;visibility:visible;opacity:1;vector-effect:none;fill:url(#g);fill-opacity:1;fill-rule:nonzero;stroke:none;stroke-width:.02358752;stroke-linecap:round;stroke-linejoin:miter;stroke-miterlimit:4;stroke-dasharray:none;stroke-dashoffset:0;stroke-opacity:1;marker:none;filter:url(#filter5465-7-2);enable-background:accumulate"/><g transform="translate(.014)"><rect ry=".451" y="25.857" x="-.014" height="7.417" width="4.377" style="color:#000;display:inline;overflow:visible;visibility:visible;opacity:1;vector-effect:none;fill:#000;fill-opacity:1;fill-rule:nonzero;stroke:none;stroke-width:.02645833;stroke-linecap:round;stroke-linejoin:miter;stroke-miterlimit:4;stroke-dasharray:none;stroke-dashoffset:0;stroke-opacity:1;marker:none;enable-background:accumulate"/><path transform="translate(13.864)" clip-path="url(#h)" d="M-13.33 26.259a.401.401 0 0 0-.403.402v5.808c0 .223.18.402.402.402h.125v-6.612z" style="color:#000;display:inline;overflow:visible;visibility:visible;opacity:1;vector-effect:none;fill:url(#i);fill-opacity:1;fill-rule:nonzero;stroke:none;stroke-width:.02358752;stroke-linecap:round;stroke-linejoin:miter;stroke-miterlimit:4;stroke-dasharray:none;stroke-dashoffset:0;stroke-opacity:1;marker:none;filter:url(#filter5465);enable-background:accumulate"/></g><path style="color:#000;display:inline;overflow:visible;visibility:visible;opacity:1;vector-effect:none;fill:#000;fill-opacity:1;fill-rule:nonzero;stroke:none;stroke-width:.02645833;stroke-linecap:round;stroke-linejoin:miter;stroke-miterlimit:4;stroke-dasharray:none;stroke-dashoffset:0;stroke-opacity:1;marker:none;enable-background:accumulate" d="M.451 39.688a.45.45 0 0 0-.451.45v12.913c0 .25.201.451.451.451h3.474a.45.45 0 0 0 .451-.45V40.138a.45.45 0 0 0-.45-.451z"/><path clip-path="url(#j)" d="M.547 40.09a.401.401 0 0 0-.402.402v12.206c0 .223.18.402.402.402h.125V40.09Z" style="color:#000;display:inline;overflow:visible;visibility:visible;opacity:1;vector-effect:none;fill:url(#k);fill-opacity:1;fill-rule:nonzero;stroke:none;stroke-width:.02358752;stroke-linecap:round;stroke-linejoin:miter;stroke-miterlimit:4;stroke-dasharray:none;stroke-dashoffset:0;stroke-opacity:1;marker:none;filter:url(#filter5465-7);enable-background:accumulate"/><path style="color:#000;display:inline;overflow:visible;visibility:visible;opacity:1;vector-effect:none;fill:#000;fill-opacity:1;fill-rule:nonzero;stroke:none;stroke-width:.02645833;stroke-linecap:round;stroke-linejoin:miter;stroke-miterlimit:4;stroke-dasharray:none;stroke-dashoffset:0;stroke-opacity:1;marker:none;enable-background:accumulate" d="M.451 39.688a.45.45 0 0 0-.451.45v12.913c0 .25.201.451.451.451h3.474a.45.45 0 0 0 .451-.45V40.138a.45.45 0 0 0-.45-.451z" transform="translate(0 17.373)"/><path clip-path="url(#l)" d="M.547 40.09a.401.401 0 0 0-.402.402v12.206c0 .223.18.402.402.402h.125V40.09Z" style="color:#000;display:inline;overflow:visible;visibility:visible;opacity:1;vector-effect:none;fill:url(#m);fill-opacity:1;fill-rule:nonzero;stroke:none;stroke-width:.02358752;stroke-linecap:round;stroke-linejoin:miter;stroke-miterlimit:4;stroke-dasharray:none;stroke-dashoffset:0;stroke-opacity:1;marker:none;filter:url(#filter5465-7-8);enable-background:accumulate" transform="translate(0 17.373)"/><path style="color:#000;display:inline;overflow:visible;visibility:visible;opacity:1;vector-effect:none;fill:#000;fill-opacity:1;fill-rule:nonzero;stroke:none;stroke-width:.12873924;stroke-linecap:round;stroke-linejoin:miter;stroke-miterlimit:4;stroke-dasharray:none;stroke-dashoffset:0;stroke-opacity:1;marker:none;enable-background:accumulate" d="M14.483.199A13.934 13.934 0 0 0 .52 14.163v162.634a13.934 13.934 0 0 0 13.964 13.965h28.301l.578-.82h8.525l.58.82h28.3a13.934 13.934 0 0 0 13.964-13.965V14.163A13.934 13.934 0 0 0 80.767.2z"/><path style="color:#000;display:inline;overflow:visible;visibility:visible;opacity:1;vector-effect:none;fill:#7d7e7f;fill-opacity:1;fill-rule:nonzero;stroke:none;stroke-width:.33773944;stroke-linecap:round;stroke-linejoin:miter;stroke-miterlimit:4;stroke-dasharray:none;stroke-dashoffset:0;stroke-opacity:1;marker:none;enable-background:accumulate" d="M245.178 19.826h1.102v-1.303h-1.102z" transform="translate(-244.341)"/><path style="color:#000;display:inline;overflow:visible;visibility:visible;opacity:1;vector-effect:none;fill:#ebebeb;fill-opacity:1;fill-rule:nonzero;stroke:none;stroke-width:.33773944;stroke-linecap:round;stroke-linejoin:miter;stroke-miterlimit:4;stroke-dasharray:none;stroke-dashoffset:0;stroke-opacity:1;marker:none;enable-background:accumulate" d="M245.178 171.2h1.102V19.827h-1.102z" transform="translate(-244.341)"/><path style="color:#000;display:inline;overflow:visible;visibility:visible;opacity:1;vector-effect:none;fill:#7d7e7f;fill-opacity:1;fill-rule:nonzero;stroke:none;stroke-width:.33773944;stroke-linecap:round;stroke-linejoin:miter;stroke-miterlimit:4;stroke-dasharray:none;stroke-dashoffset:0;stroke-opacity:1;marker:none;enable-background:accumulate" d="M245.178 172.504h1.102v-1.303h-1.102z" transform="translate(-244.341)"/><path style="color:#000;display:inline;overflow:visible;visibility:visible;opacity:1;vector-effect:none;fill:#ebebeb;fill-opacity:1;fill-rule:nonzero;stroke:none;stroke-width:.33773944;stroke-linecap:round;stroke-linejoin:miter;stroke-miterlimit:4;stroke-dasharray:none;stroke-dashoffset:0;stroke-opacity:1;marker:none;enable-background:accumulate" d="M338.755 172.504h-1.103v4.36a12.668 12.668 0 0 1-12.695 12.695h-65.982a12.668 12.668 0 0 1-12.695-12.695v-4.36h-1.102v3.783a14.143 14.143 0 0 0 14.174 14.174h65.228a14.143 14.143 0 0 0 14.175-14.174z" transform="translate(-244.341)"/><path style="color:#000;display:inline;overflow:visible;visibility:visible;opacity:1;vector-effect:none;fill:#7d7e7f;fill-opacity:1;fill-rule:nonzero;stroke:none;stroke-width:.33773944;stroke-linecap:round;stroke-linejoin:miter;stroke-miterlimit:4;stroke-dasharray:none;stroke-dashoffset:0;stroke-opacity:1;marker:none;enable-background:accumulate" d="M338.755 171.2h-1.103v1.304h1.103z" transform="translate(-244.341)"/><path style="color:#000;display:inline;overflow:visible;visibility:visible;opacity:1;vector-effect:none;fill:#ebebeb;fill-opacity:1;fill-rule:nonzero;stroke:none;stroke-width:.33773944;stroke-linecap:round;stroke-linejoin:miter;stroke-miterlimit:4;stroke-dasharray:none;stroke-dashoffset:0;stroke-opacity:1;marker:none;enable-background:accumulate" d="M338.755 19.826h-1.103v151.375h1.103z" transform="translate(-244.341)"/><path style="color:#000;display:inline;overflow:visible;visibility:visible;opacity:1;vector-effect:none;fill:#7d7e7f;fill-opacity:1;fill-rule:nonzero;stroke:none;stroke-width:.33773944;stroke-linecap:round;stroke-linejoin:miter;stroke-miterlimit:4;stroke-dasharray:none;stroke-dashoffset:0;stroke-opacity:1;marker:none;enable-background:accumulate" d="M338.755 18.523h-1.103v1.303h1.103z" transform="translate(-244.341)"/><path style="color:#000;display:inline;overflow:visible;visibility:visible;opacity:1;vector-effect:none;fill:#ebebeb;fill-opacity:1;fill-rule:nonzero;stroke:none;stroke-width:.33773944;stroke-linecap:round;stroke-linejoin:miter;stroke-miterlimit:4;stroke-dasharray:none;stroke-dashoffset:0;stroke-opacity:1;marker:none;enable-background:accumulate" d="M259.352.6a14.143 14.143 0 0 0-14.174 14.174v3.75h1.102v-4.177a12.667 12.667 0 0 1 12.695-12.695h65.982a12.667 12.667 0 0 1 12.695 12.695v4.176h1.103v-3.75A14.143 14.143 0 0 0 324.58.6z" transform="translate(-244.341)"/><path clip-path="url(#n)" transform="scale(.26458)" d="M37.924 11.58c-6.587-.168-19.14 1.826-32.031 16.313-18.75 21.071-1.965 8.392-1.965 8.392s11.518-17.856 27.59-20.178c16.071-2.321 11.16-3.93 11.16-3.93s-1.76-.52-4.754-.597zm284.152 0c-2.994.076-4.754.598-4.754.598s-4.911 1.608 11.16 3.93c16.072 2.32 27.59 20.177 27.59 20.177s16.785 12.679-1.965-8.392c-12.89-14.487-25.444-16.48-32.03-16.313zM-2.439 681.941c-1.439-.172-.457 2.29 8.332 12.166 18.75 21.072 36.785 15.715 36.785 15.715s4.911-1.608-11.16-3.93c-16.072-2.32-27.59-20.177-27.59-20.177s-4.737-3.578-6.367-3.774zm364.878 0c-1.63.196-6.367 3.774-6.367 3.774s-11.518 17.856-27.59 20.178c-16.071 2.321-11.16 3.93-11.16 3.93s18.035 5.356 36.785-15.716c8.79-9.877 9.77-12.338 8.332-12.166z" style="fill:#434343;fill-opacity:1;fill-rule:evenodd;stroke:none;stroke-width:1px;stroke-linecap:butt;stroke-linejoin:miter;stroke-opacity:1;filter:url(#o)"/><g><path transform="matrix(.26458 0 0 .26458 -.113 0)" d="M325.58 15.363c-1.174-.116-.62 1.055 2.016 3.496 8.696 8.055 14.095 19.714 14.095 32.692v619.144c0 12.978-5.4 24.637-14.095 32.692-2.636 2.441-3.19 3.612-2.016 3.496.705-.07 2.032-.603 3.904-1.602 12.71-6.78 20.09-21.408 20.09-36.945V53.91c0-15.537-7.38-30.165-20.09-36.945-1.872-.999-3.2-1.532-3.904-1.602z" style="color:#000;display:inline;overflow:visible;visibility:visible;opacity:1;vector-effect:none;fill:url(#p);fill-opacity:1;fill-rule:nonzero;stroke:none;stroke-width:6.68900537;stroke-linecap:round;stroke-linejoin:miter;stroke-miterlimit:4;stroke-dasharray:none;stroke-dashoffset:0;stroke-opacity:1;marker:none;enable-background:accumulate"/><path d="M9.333 4.065c.311-.03.164.279-.533.925-2.3 2.131-3.73 5.216-3.73 8.65v163.815c0 3.433 1.43 6.518 3.73 8.65.697.645.844.955.533.924-.186-.018-.537-.16-1.033-.423-3.362-1.794-5.315-5.665-5.315-9.775V14.264c0-4.111 1.953-7.981 5.315-9.775.496-.265.847-.406 1.033-.424z" style="color:#000;display:inline;overflow:visible;visibility:visible;opacity:1;vector-effect:none;fill:url(#q);fill-opacity:1;fill-rule:nonzero;stroke:none;stroke-width:1.76979935;stroke-linecap:round;stroke-linejoin:miter;stroke-miterlimit:4;stroke-dasharray:none;stroke-dashoffset:0;stroke-opacity:1;marker:none;enable-background:accumulate" transform="translate(-.113)"/></g><g><rect ry=".721" y="7.262" x="42.026" height="1.441" width="11.363" style="color:#000;display:inline;overflow:visible;visibility:visible;opacity:1;vector-effect:none;fill:#1e1e1e;fill-opacity:1;fill-rule:nonzero;stroke:none;stroke-width:.26458335;stroke-linecap:round;stroke-linejoin:miter;stroke-miterlimit:4;stroke-dasharray:none;stroke-dashoffset:0;stroke-opacity:1;marker:none;enable-background:accumulate"/><circle r="1.345" cy="7.89" cx="57.915" style="color:#000;display:inline;overflow:visible;visibility:visible;opacity:1;vector-effect:none;fill:#2b2b2b;fill-opacity:1;fill-rule:nonzero;stroke:none;stroke-width:.02645833;stroke-linecap:round;stroke-linejoin:miter;stroke-miterlimit:4;stroke-dasharray:none;stroke-dashoffset:0;stroke-opacity:1;marker:none;enable-background:accumulate"/><circle r="1.077" cy="7.89" cx="57.915" style="color:#000;display:inline;overflow:visible;visibility:visible;opacity:1;vector-effect:none;fill:#0a0d13;fill-opacity:1;fill-rule:nonzero;stroke:none;stroke-width:.02645833;stroke-linecap:round;stroke-linejoin:miter;stroke-miterlimit:4;stroke-dasharray:none;stroke-dashoffset:0;stroke-opacity:1;marker:none;enable-background:accumulate"/><circle r=".821" cy="7.89" cx="57.915" style="color:#000;display:inline;overflow:visible;visibility:visible;opacity:1;vector-effect:none;fill:#091427;fill-opacity:1;fill-rule:nonzero;stroke:none;stroke-width:.02645833;stroke-linecap:round;stroke-linejoin:miter;stroke-miterlimit:4;stroke-dasharray:none;stroke-dashoffset:0;stroke-opacity:1;marker:none;enable-background:accumulate"/><path d="M57.35 7.34c-.098.01-.236.16-.246.451-.01.292.118.451.19.451.071 0 .368-.425.056-.901z" style="fill:#235a91;fill-opacity:.55607474;fill-rule:evenodd;stroke:none;stroke-width:.02645833;stroke-linecap:butt;stroke-linejoin:miter;stroke-opacity:1;stroke-miterlimit:4;stroke-dasharray:none;filter:url(#r)"/><path d="M58.049 7.238c-.154.047-.183.296-.177.437.006.142.206.514.449.431.242-.082.283-.39.183-.596-.1-.207-.284-.354-.455-.272Z" style="fill:#235a91;fill-rule:evenodd;stroke:none;stroke-width:.02645833;stroke-linecap:butt;stroke-linejoin:miter;stroke-opacity:1;fill-opacity:.55607474;stroke-miterlimit:4;stroke-dasharray:none;filter:url(#s)"/><path style="color:#000;display:inline;overflow:visible;visibility:visible;opacity:1;vector-effect:none;fill:#0f0f0f;fill-opacity:1;fill-rule:nonzero;stroke:none;stroke-width:.02645833;stroke-linecap:round;stroke-linejoin:miter;stroke-miterlimit:4;stroke-dasharray:none;stroke-dashoffset:0;stroke-opacity:1;marker:none;enable-background:accumulate" d="M40.24 8.014a1.057 1.057 0 0 1-1.052 1.057 1.057 1.057 0 0 1-1.061-1.05 1.057 1.057 0 0 1 1.045-1.064 1.057 1.057 0 0 1 1.069 1.041l-1.057.016z"/><path style="color:#000;display:inline;overflow:visible;visibility:visible;opacity:1;vector-effect:none;fill:#101010;fill-opacity:1;fill-rule:nonzero;stroke:none;stroke-width:.03099457;stroke-linecap:round;stroke-linejoin:miter;stroke-miterlimit:4;stroke-dasharray:none;stroke-dashoffset:0;stroke-opacity:1;marker:none;enable-background:accumulate" d="M34.246 8.038a1.595 1.57 0 0 1-1.589 1.57 1.595 1.57 0 0 1-1.6-1.558 1.595 1.57 0 0 1 1.577-1.58 1.595 1.57 0 0 1 1.612 1.545l-1.595.023z"/></g><path style="color:#000;display:inline;overflow:visible;visibility:visible;opacity:1;vector-effect:none;fill:url(#t);fill-opacity:1;fill-rule:nonzero;stroke:none;stroke-width:.08883588;stroke-linecap:round;stroke-linejoin:miter;stroke-miterlimit:4;stroke-dasharray:none;stroke-dashoffset:0;stroke-opacity:1;marker:none;enable-background:accumulate" d="M14.624 2.577c-2.299 0-4.437.658-6.242 1.792v1.505a10.897 10.897 0 0 1 6-1.785h66.619c2.22 0 4.28.657 6 1.785V4.37a11.685 11.685 0 0 0-6.241-1.792H40.794Z"/><path style="color:#000;display:inline;overflow:visible;visibility:visible;opacity:1;vector-effect:none;fill:url(#u);fill-opacity:1;fill-rule:nonzero;stroke:none;stroke-width:.08883588;stroke-linecap:round;stroke-linejoin:miter;stroke-miterlimit:4;stroke-dasharray:none;stroke-dashoffset:0;stroke-opacity:1;marker:none;enable-background:accumulate" d="M14.624 188.384c-2.299 0-4.437-.658-6.242-1.792v-1.505a10.897 10.897 0 0 0 6 1.785h66.619c2.22 0 4.28-.657 6-1.785v1.505a11.685 11.685 0 0 1-6.241 1.792H40.794Z"/><path style="color:#000;display:inline;overflow:visible;visibility:visible;opacity:1;vector-effect:none;fill:url(#v);fill-opacity:1;fill-rule:nonzero;stroke:none;stroke-width:.66800001;stroke-linecap:round;stroke-linejoin:miter;stroke-miterlimit:4;stroke-dasharray:none;stroke-dashoffset:0;stroke-opacity:.95294118;marker:none;enable-background:accumulate" d="M55.78 22.201c-17.769 0-32.073 14.304-32.073 32.072V667.47c0 17.768 14.304 32.072 32.072 32.072h248.442c17.768 0 32.072-14.304 32.072-32.072V54.273c0-17.768-14.304-32.072-32.072-32.072h-31.373a5.358 5.358 0 0 0-5.358 5.358v2.466c0 9.654-7.77 17.426-17.424 17.426H109.934A17.386 17.386 0 0 1 92.51 30.025V27.56a5.358 5.358 0 0 0-5.358-5.358H55.78z" transform="scale(.26458)"/><path style="color:#000;display:inline;overflow:visible;visibility:visible;opacity:1;vector-effect:none;fill:#0f0f0f;fill-opacity:1;fill-rule:nonzero;stroke:none;stroke-width:.05308891;stroke-linecap:round;stroke-linejoin:miter;stroke-miterlimit:4;stroke-dasharray:none;stroke-dashoffset:0;stroke-opacity:1;marker:none;enable-background:accumulate" d="M66.398 7.87a2.133 2.11 0 0 1-2.125 2.109 2.133 2.11 0 0 1-2.14-2.094A2.133 2.11 0 0 1 64.24 5.76a2.133 2.11 0 0 1 2.157 2.078l-2.133.031z"/></svg>
