<svg width="1023" height="1023" viewBox="-1 -1 31 31" xmlns="http://www.w3.org/2000/svg" shape-rendering="crispEdges"><path fill="#FFF" d="M-1-1h31v31H-1z"/><path fill-rule="evenodd" d="M9 0h1v1H9zm2 0h1v1h-1zm3 0h1v1h1V0h5v1h-2v2h-1V1h-1v1h-2v1h1v1h-1v1h-1V4h-1v1h-2V4h-1V3h4zM8 1h1v1H8zm2 0h1v1h-1zM9 2h1v1H9zm11 0h1v5h-1V5h-1V4h1zM8 3h1v1H8zm9 0h1v1h-1zM9 4h1v1h1v2h1v1h3V7h1V6h-1V5h1V4h1v4h-1v1h-2v1h-1V9h-1v1h-1V8H9V7h1V6H9v1H8V5h1zm4 1h1v1h-1zm-1 1h1v1h-1zm2 0h1v1h-1zm4 0h1v1h-1zM0 8h5v4H3v-1H2V9H1v3H0zm6 0h3v1H8v1H7V9H6zm11 0h1v1h-1zm2 0h1v1h1v1h1v1h1v1h-4v1h2v1h-3v1h-1v1h-2v-1h-1v-2h-2v-1h-2v2H9v-1H8v-1H7v-1h1v-1h1v1h1v-1h1v1h1v-1h1v2h1v-1h1v1h3v-1h-3v-1h1V9h1v1h1V9h1zm0 2h1v1h-1zm-4 3h1v1h-1zm6-5h1v1h-1zm2 0h1v1h1v2h1v1h1v1h-2v-1h-1v-1h-1v-1h-1V9h1zm2 0h1v1h-1zm2 0h1v1h-1zm1 1h1v1h-1zM6 10h1v1H6zm21 1h1v1h-1zM1 12h2v3H2v-1H1v2h2v1H1v4H0v-8h1zm5 0h1v1H6zm-2 1h2v1H5v1H4zm3 0h1v1H7zm4 0h1v1h-1zm11 0h3v1h2v1h-3v-1h-2zm6 0h1v1h-1zM6 14h1v1H6zm2 0h1v1h1v-1h1v1h1v1h3v2H9v-1h1v-1H9v1H8zm10 1h4v2h-1v-1h-1v2h-1v1h-1v-1h-1v-2h1v1h1v-1h-1zm9 0h1v1h-1zM5 16h2v1H6v1H5v1H4v1H3v1H2v-3h2v-1h1zm18 0h1v1h1v3h-1v-1h-1v-1h-1v-1h1zm2 0h2v3h-1v-2h-1zM7 17h1v1H7zm21 0h1v1h-1zM6 18h1v1H6zm2 0h1v1H8zm7 0h2v1h-2zm5 0h2v1h1v1h-2v-1h-1zM9 19h1v1h1v-1h2v1h1v2h-1v-1h-1v1H9v1H8v-2h1zm5 0h1v1h-1zm13 0h1v1h1v2h-2v1h-2v-2h1v-1h1zM4 20h3v1H4zm11 0h3v1h2v2h-1v-1h-1v1h-3v1h4v2h-1v1h-4v-2h-2v1h-1v1h-1v1h1v1H8v-5h1v-1h1v1h4v-2h2v-1h-1zm-6 5h1v1H9zm6 0h1v1h-1zm-3-3h1v1h-1zm14 2h1v2h1v2h-1v-1h-1v1h-2v1h-1v-2h-1v-1h3v-1h1zm-5 1h1v1h-1zm7 0h1v1h-1zm-16 2h1v1h3v1h-4zm7 0h2v1h-2zm-2 1h1v1h-1zm9 0h1v1h-1z"/><path d="M0 0h7v7H0V0zm1 1h5v5H1V1zm1 1h3v3H2V2zm20-2h7v7h-7V0zm1 1h5v5h-5V1zm1 1h3v3h-3V2zM0 22h7v7H0v-7zm1 1h5v5H1v-5zm1 1h3v3H2v-3zm18-4h5v5h-5v-5zm1 1h3v3h-3v-3zm1 1h1v1h-1v-1z" fill-rule="evenodd"/></svg>