<svg xmlns="http://www.w3.org/2000/svg" viewBox="202 117 184 24" id="logo-large">
  <path fill="#595959" d="M214.84 125.45a5.58 5.58 0 01-2.07 4.67 9.25 9.25 0 01-5.86 1.63h-3.25v8.68h-1.47v-21h5.15q7.5-.02 7.5 6.02zm-11.18 5h2.89c2.36 0 4.08-.39 5.13-1.17a4.43 4.43 0 001.58-3.8 4.3 4.3 0 00-1.49-3.6 7.49 7.49 0 00-4.63-1.17h-3.48zm24.88 9.98l-.36-2.47h-.11a7.44 7.44 0 01-2.43 2.13 6.44 6.44 0 01-2.94.63 5.09 5.09 0 01-3.57-1.18 4.19 4.19 0 01-1.28-3.26 4 4 0 011.9-3.56 10.41 10.41 0 015.51-1.33l3-.09v-1a5.29 5.29 0 00-.91-3.37 3.52 3.52 0 00-2.92-1.13 9.86 9.86 0 00-4.5 1.2l-.53-1.23a11.85 11.85 0 015.09-1.21 5.09 5.09 0 013.85 1.34 5.86 5.86 0 011.27 4.17v10.39zm-5.75-1a5 5 0 005.39-5.4v-1.54l-2.73.12a10.24 10.24 0 00-4.69 1 3 3 0 00-1.41 2.71 2.91 2.91 0 00.9 2.28 3.67 3.67 0 002.54.82zm18.01-14.93a12.71 12.71 0 012.13.2l-.27 1.37a8.55 8.55 0 00-2-.25 4 4 0 00-3.28 1.7 6.93 6.93 0 00-1.28 4.28v8.63h-1.42V124.8h1.21l.14 2.82h.1a6.55 6.55 0 012.06-2.42 4.86 4.86 0 012.61-.7zm9.43 14.95a10.31 10.31 0 002.36-.23v1.15a7.56 7.56 0 01-2.39.35 3.87 3.87 0 01-3-1.11 5.13 5.13 0 01-1-3.48V126h-2.31v-.83l2.31-.65.72-3.54h.74v3.78h4.58V126h-4.58v9.89a4.54 4.54 0 00.63 2.66 2.3 2.3 0 001.94.9zm26.31-6.85a8.84 8.84 0 01-1.86 6 6.39 6.39 0 01-5.11 2.15 6.68 6.68 0 01-3.63-1 6.49 6.49 0 01-2.4-2.85 10.47 10.47 0 01-.83-4.28 8.82 8.82 0 011.85-6 6.39 6.39 0 015.09-2.14 6.27 6.27 0 015.06 2.17 8.87 8.87 0 011.83 5.95zm-12.33 0a8 8 0 001.41 5 5.36 5.36 0 008 0 8 8 0 001.41-5 7.79 7.79 0 00-1.43-5 4.84 4.84 0 00-4-1.78 4.78 4.78 0 00-4 1.77 7.9 7.9 0 00-1.39 5.01zm22.46-6.6H283v14.39h-1.42V126h-2.9v-.83l2.9-.54v-1.2a6.76 6.76 0 011.06-4.22 4.1 4.1 0 013.45-1.35 8.89 8.89 0 012.59.39l-.33 1.24a7.65 7.65 0 00-2.29-.36 2.7 2.7 0 00-2.36 1 5.64 5.64 0 00-.7 3.2v1.45h3.68z"/>
  <path fill="#822a7c" d="M317.7 128.8h-7.32a1.17 1.17 0 000 2.33h6v.25a8.76 8.76 0 11-2.18-7.32 1.23 1.23 0 001.49.15l.2-.15a1.05 1.05 0 00.31-.67 1.08 1.08 0 00-.28-1 11.1 11.1 0 102.92 7.5 1.09 1.09 0 00-1.14-1.14m5.98-6.81a2.38 2.38 0 011.75-.73h3.88a1.17 1.17 0 000-2.34h-3.88a4.8 4.8 0 00-4.83 4.82v12.53a4.8 4.8 0 004.83 4.82h3.88a1.18 1.18 0 000-2.35h-3.88a2.35 2.35 0 01-1.74-.71 2.38 2.38 0 01-.72-1.76v-5.09h6.31a1.13 1.13 0 001.17-1.19 1.1 1.1 0 00-1.17-1.14H323v-5.11a2.38 2.38 0 01.71-1.75m17.71 16.75H337a2.46 2.46 0 01-2.49-2.47V120a1.17 1.17 0 00-2.34 0v16.19A4.8 4.8 0 00337 141h4.38a1.18 1.18 0 000-2.35m11.62.04h-4.4a2.48 2.48 0 01-2.49-2.47V120a1.17 1.17 0 00-2.34 0v16.19a4.8 4.8 0 004.83 4.81h4.4a1.18 1.18 0 000-2.35m3.78-19.78a1.12 1.12 0 00-1.17 1.16v19.86a1.12 1.12 0 001.2 1.15 1.09 1.09 0 001.14-1.15V120a1.12 1.12 0 00-1.17-1.16m6.99 3.1a2.39 2.39 0 011.77-.73h3.85a1.17 1.17 0 000-2.34h-3.85a4.81 4.81 0 00-4.84 4.82v16.2a1.17 1.17 0 002.34 0v-8.76h6.35a1.12 1.12 0 001.15-1.19 1.09 1.09 0 00-1.15-1.14H363v-5.11a2.36 2.36 0 01.73-1.75m21.27-3.07a1.12 1.12 0 00-1.17 1.16v6.68a4.77 4.77 0 11-9.53 0V120a1.18 1.18 0 00-2.36 0v6.68a7.1 7.1 0 005.77 7h.17v6.16a1.13 1.13 0 001.2 1.15 1.11 1.11 0 001.16-1.15v-6.16h.17a7.1 7.1 0 005.77-7V120a1.12 1.12 0 00-1.18-1.16"/>
</svg>
