<svg xmlns="http://www.w3.org/2000/svg" viewBox="-70.371 -1 509.04 145.51"><path fill="#1e1e1e" d="M180.7 71.6V0h45.4v12.8h-31.9v17.4h28.7V43h-28.7v28.6zm104.1-12.4 11.7-5q1.7 3.8 4.55 5.65t6.35 1.85q3.6 0 5.7-1.3t2.1-3.1q0-2-1.75-3.25t-6.05-2.25l-6.9-1.5q-2.3-.5-4.75-1.6t-4.45-2.8-3.3-4.1-1.3-5.6q0-3.6 1.55-6.4t4.25-4.75 6.35-3T306.7 21q7 0 12.5 2.75t8.1 8.75L316 37.1q-1.4-2.9-4.1-4.2t-5.4-1.3q-2.8 0-4.9 1.15t-2.1 2.95q0 1.7 1.75 2.7t4.75 1.8l7.5 1.8q7.5 1.8 11.15 5.75t3.65 9.35q0 3.2-1.5 6.1t-4.25 5.15-6.6 3.55-8.55 1.3q-4.8 0-8.55-1.2t-6.5-3.15-4.65-4.5-2.9-5.15m-180.5-4.8 10.9 5.4q-3.4 6-9.15 9.7T92 73.2q-5.6 0-10.35-1.95T73.4 65.8t-5.45-8.25T66 47.1q0-5.3 1.9-10.05t5.3-8.3 8.05-5.65T91.5 21q5.9 0 10.5 1.95t7.7 5.4 4.7 8.15 1.6 10.2v1.2q-.1.6-.1 1.1-.1.5-.1 1.1H78.9q.4 3 1.65 5.15t3.1 3.6 4.05 2.1 4.5.65q4.5 0 7.45-2.05t4.65-5.15m163.1 0 10.9 5.4q-3.4 6-9.15 9.7t-14.05 3.7q-5.6 0-10.35-1.95t-8.25-5.45-5.45-8.25-1.95-10.45q0-5.3 1.9-10.05t5.3-8.3 8.05-5.65T254.6 21q5.9 0 10.5 1.95t7.7 5.4 4.7 8.15 1.6 10.2v1.2q-.1.6-.1 1.1-.1.5-.1 1.1H242q.4 3 1.65 5.15t3.1 3.6 4.05 2.1 4.5.65q4.5 0 7.45-2.05t4.65-5.15M0 71.6V0h24.2q8.5 0 15.3 2.6t11.6 7.35 7.35 11.35T61 35.8q0 8-2.55 14.6T51.1 61.7 39.5 69t-15.3 2.6zm139.1 0-20.9-49h14.9l12.2 31.2h.7l12.3-31.2h14.8l-21.1 49zm202.1-16.3V33.8h-8.6V22.6h8.6v-15h13.1v15h12v11.2h-12v19q0 1.7.35 3.15T356 58.4q1.4 1.6 4 1.6 1.7 0 2.7-.35t1.9-.95l3.7 11.5q-2.3 1.1-4.95 1.65t-5.85.55q-3.7 0-6.65-1.15t-4.95-3.15q-4.7-4.5-4.7-12.8M13.5 58.8h10.1q5.9 0 10.4-1.65t7.5-4.65 4.5-7.25 1.5-9.45-1.5-9.45-4.5-7.25-7.5-4.65-10.4-1.65H13.5zm66.1-18h23.7q-.1-1.3-.85-2.9t-2.2-3-3.6-2.3-5.15-.9q-4.2 0-7.4 2.4t-4.5 6.7m163.1 0h23.7q-.1-1.3-.85-2.9t-2.2-3-3.6-2.3-5.15-.9q-4.2 0-7.4 2.4t-4.5 6.7"/><path fill="#f9ab00" stroke="#1e1e1e" stroke-linejoin="round" stroke-width="2.5" d="M-39 .25h17v24h-13a4 4 0 0 0-4 4v86a4 4 0 0 0 4 4h13v24h-18a18 18 0 0 1-18-18v-36a4 4 0 0 0-4-4h-7v-26h7a4 4 0 0 0 4-4v-36a18 18 0 0 1 18-18zm446 0h-17v24h13a4 4 0 0 1 4 4v86a4 4 0 0 1-4 4h-13v24h18a18 18 0 0 0 18-18v-36a4 4 0 0 1 4-4h7v-26h-7a4 4 0 0 1-4-4v-36a18 18 0 0 0-18-18z"/><rect width="367.5" height="53" y="90" fill="#fff" stroke="#1e1e1e" stroke-width="2" rx="26.5"/></svg>
