<svg xmlns="http://www.w3.org/2000/svg" width="1000" height="237.731"><path style="fill:#006b33;fill-opacity:1;stroke-width:.38882184" d="M254.255 123.028V8.326h35.772v7.582c0 4.17.064 7.582.142 7.582.078 0 2.335-1.374 5.017-3.054C326.823.62 372.812-5.347 414.061 5.012c37.162 9.333 64.102 31.488 73.679 60.592 5.596 17.007 5.288 35.921-.855 52.37-7.64 20.46-23.348 36.911-46.004 48.18-19.826 9.862-42.462 14.8-67.84 14.8-21.04 0-40.662-3.507-57.935-10.357-6.854-2.718-15.64-7.18-20.969-10.648l-4.11-2.676v80.458h-35.772zm136.088 27.433c20.12-2.854 35.732-9.238 47.436-19.398 8.86-7.691 15.031-18.373 17.369-30.066.956-4.782.958-16.076.01-20.844-2.753-13.761-10.638-25.782-22.443-34.211-4.758-3.398-14.424-8.24-20.593-10.314-17.422-5.86-38.545-7.596-57.892-4.757-33.59 4.93-56.293 21.59-62.384 45.777-2.688 10.672-2.208 22.192 1.343 32.262 8.067 22.871 31.855 38.091 65.47 41.89 6.758.764 25.314.565 31.689-.34zm118.59-27.433V8.326h35.772v7.582c0 4.17.078 7.582.173 7.582.095 0 2.063-1.233 4.374-2.74 5.347-3.485 15.903-8.699 22.67-11.197C601.14-1.23 636.813-2.97 668.032 4.868c50.889 12.776 80.857 47.78 78.028 91.137-2.16 33.097-24.182 60.283-60.406 74.57-11.816 4.66-23.925 7.598-39.08 9.483-7.999.996-29.556.994-37.906-.002-23.633-2.819-44.382-9.837-60.56-20.482l-3.402-2.239v80.396h-35.771V123.028Zm136.953 27.264c27.868-4.161 47.505-15.388 57.824-33.056 5.993-10.262 8.238-23.914 6.015-36.59-4.62-26.346-27.775-44.577-63.224-49.78-23.398-3.434-49.816-.013-67.774 8.776-18.332 8.971-29.364 22.367-33.13 40.227-.989 4.688-.986 16.741.01 21.337 2.667 12.37 8.695 22.605 17.846 30.297 12.598 10.592 28.996 16.898 50.273 19.336 7.038.807 25.167.498 32.165-.547zm-539.383 30.426c-18.975-1.676-35.17-5.414-48.943-11.297-31.325-13.38-51.11-35.962-56.48-64.463C.055 99.514-.336 87.25.33 81.389c3.877-34.17 29.05-61.237 68.847-74.027 21.179-6.806 47.248-9.03 70.647-6.025 42.87 5.504 75.299 25.383 89.552 54.897 11.606 24.03 10.133 53.22-3.817 75.66-6.284 10.11-16.631 20.542-27.293 27.52-16.587 10.855-36.4 17.608-60.462 20.609-4.82.601-26.83 1.09-31.3.695zm25.375-29.882c18.66-1.98 34.357-7.307 46.168-15.667 9.656-6.834 17.296-16.907 20.725-27.32 2.006-6.096 2.405-8.958 2.405-17.287 0-8.305-.393-11.143-2.384-17.243-6.545-20.05-25.687-34.962-52.435-40.85-23.45-5.162-50.8-3.368-71.062 4.662-14.619 5.793-26.157 15.17-32.924 26.756-7.195 12.32-8.828 29.101-4.238 43.563 4.946 15.58 17.974 28.621 35.903 35.935 9.766 3.984 21.857 6.76 33.828 7.766 4.593.386 19.217.194 24.014-.315zm737.882 29.895c-.748-.085-3.373-.345-5.832-.579-19.746-1.87-40.505-8.107-55.724-16.738-20.574-11.67-34.905-28.254-41.446-47.968-4.428-13.341-5.183-28.334-2.124-42.128 4.625-20.857 17.322-38.568 37.039-51.668 26-17.274 64.232-24.946 101.137-20.296 30.662 3.863 55.923 15.077 73.5 32.629 13.387 13.366 21.083 29.028 23.307 47.431.578 4.783.489 14.454-.181 19.529-4.824 36.543-33.793 64.473-78.157 75.354-13.45 3.299-21.894 4.297-37.715 4.46-6.844.071-13.055.06-13.804-.026zm23.524-29.713c23.62-2.173 42.87-9.956 55.228-22.33 8.368-8.379 13.225-17.602 15.139-28.748.789-4.594.778-14.168-.022-18.933-4.305-25.649-26.92-44.24-60.43-49.68-8.045-1.306-13.396-1.731-21.774-1.731-37.57 0-66.72 14.165-77.932 37.87-3.342 7.066-4.884 14.358-4.884 23.096 0 11.53 2.687 20.673 8.753 29.784 11.135 16.727 32.253 27.413 60.203 30.464 5.765.63 19.897.744 25.72.208z"/></svg>
